<svg width="46" height="47" viewBox="0 0 46 47" fill="none" xmlns="http://www.w3.org/2000/svg">
<mask id="path-1-inside-1_152_65" fill="white">
<path d="M20.1815 0.106445C21.7747 -0.095321 23.0819 1.22518 23.0819 2.83105C23.0818 4.43682 21.7705 5.71327 20.1874 5.98242C17.8025 6.38792 15.5185 7.29249 13.4891 8.64844C10.6497 10.5457 8.43661 13.2425 7.12976 16.3975C5.82299 19.5524 5.48114 23.0238 6.14734 26.373C6.65651 28.9328 7.73862 31.332 9.29773 33.3994C9.3785 33.4406 9.462 33.4806 9.54871 33.5156C9.99162 33.6944 10.4921 33.7827 10.9979 33.7725C11.3365 33.7656 11.6688 33.713 11.9803 33.6211C12.1416 33.2913 12.3196 32.9362 12.5175 32.5605C13.7093 30.2974 15.5851 27.247 18.3309 24.0723C20.9053 21.0957 24.2481 18.0061 28.5116 15.3564C29.148 14.9609 29.982 15.1606 30.3739 15.8027C30.7657 16.4449 30.567 17.2861 29.9305 17.6816C25.9306 20.1675 22.7916 23.0684 20.37 25.8682C17.7854 28.8566 16.0225 31.7266 14.9081 33.8428C14.6084 34.4119 14.3559 34.9258 14.1473 35.3721C14.1114 35.7873 14.141 36.2269 14.2382 36.6602C14.3565 37.1876 14.5682 37.6865 14.8514 38.1045C14.8811 38.1483 14.9123 38.1908 14.9432 38.2324C16.4326 39.0284 18.0385 39.6064 19.7128 39.9395C23.0621 40.6057 26.5343 40.2629 29.6893 38.9561C32.8442 37.6492 35.5412 35.4369 37.4384 32.5977C38.7944 30.5683 39.6979 28.2833 40.1034 25.8984C40.3727 24.3154 41.6499 23.0049 43.2557 23.0049C44.8615 23.0049 46.1818 24.3114 45.9803 25.9043C45.5323 29.4416 44.2689 32.8416 42.2733 35.8281C39.7371 39.6237 36.1324 42.5821 31.9149 44.3291C27.6974 46.076 23.0563 46.5331 18.579 45.6426C14.1017 44.752 9.98861 42.554 6.76062 39.3262C3.53261 36.0982 1.33387 31.9851 0.443237 27.5078C-0.447364 23.0305 0.00977315 18.3894 1.75671 14.1719C3.50364 9.95446 6.46215 6.34969 10.2577 3.81348C13.2443 1.81793 16.6442 0.554456 20.1815 0.106445ZM18.704 29.4961C21.1501 26.8617 25.0373 27.2904 26.9354 30.3242C26.9857 30.4045 27.0321 30.4796 27.0741 30.5479C27.3672 31.0245 27.3932 31.6919 26.9403 32.1797C24.4941 34.8142 20.607 34.3857 18.7089 31.3516C18.6587 31.2713 18.6122 31.1962 18.5702 31.1279C18.2772 30.6513 18.2512 29.9837 18.704 29.4961ZM23.6102 23.7793C26.1365 21.5918 29.8938 22.0622 31.5897 24.8525C31.6339 24.9253 31.6749 24.9938 31.7118 25.0557C32.0044 25.5465 31.9635 26.2019 31.4696 26.6299C28.9433 28.8176 25.1849 28.3473 23.4891 25.5566C23.445 25.484 23.4048 25.4162 23.368 25.3545C23.0753 24.8636 23.116 24.2072 23.6102 23.7793ZM13.1083 17.2344C13.5001 16.8365 14.137 16.6568 14.7118 16.9883C17.8168 18.7805 18.3023 22.6963 15.8153 25.2617C15.7495 25.3296 15.6879 25.3922 15.6317 25.4492C15.2399 25.8472 14.6021 26.027 14.0272 25.6953C10.9222 23.9031 10.4377 19.9872 12.9247 17.4219C12.9905 17.354 13.0522 17.2914 13.1083 17.2344ZM29.7596 19.1738C32.1131 17.2082 35.6385 17.8134 37.2821 20.3945C37.3254 20.4625 37.3651 20.5262 37.4012 20.584C37.6844 21.0366 37.6937 21.6899 37.1844 22.1152C34.8311 24.0808 31.3056 23.4754 29.662 20.8945C29.6186 20.8265 29.5781 20.7629 29.5419 20.7051C29.2588 20.2525 29.2504 19.5992 29.7596 19.1738ZM20.579 11.4395C21.0706 11.1904 21.7252 11.2235 22.162 11.7178C24.5026 14.3688 23.7415 18.1751 20.6278 19.7832C20.5457 19.8256 20.469 19.8641 20.3993 19.8994C19.9075 20.1487 19.2521 20.1158 18.8153 19.6211C16.4748 16.9701 17.2361 13.1649 20.3495 11.5566C20.4319 11.5141 20.5091 11.4749 20.579 11.4395ZM32.4081 13.043C33.7264 10.7991 36.5293 9.73256 38.9872 10.54L39.3339 10.6543C40.5698 11.0604 41.114 12.518 40.451 13.6465L40.2645 13.9629C38.9462 16.2065 36.1441 17.2722 33.6864 16.4648L33.3387 16.3516C32.1031 15.9454 31.5589 14.4877 32.2216 13.3594L32.4081 13.043ZM29.9979 7.65723C30.634 7.69566 31.0523 8.17946 31.1591 8.7041C31.1738 8.77639 31.1892 8.85587 31.2059 8.94141C31.8442 12.2063 29.4947 15.0008 26.1815 14.8008C25.5456 14.7624 25.1272 14.2784 25.0204 13.7539C25.0056 13.6815 24.9903 13.6014 24.9735 13.5156C24.3354 10.2508 26.6847 7.45717 29.9979 7.65723Z"/>
</mask>
<path d="M20.1815 0.106445L20.0559 -0.88563L20.0559 -0.88563L20.1815 0.106445ZM23.0819 2.83105L24.0819 2.83113L24.0819 2.83105L23.0819 2.83105ZM20.1874 5.98242L20.0198 4.99657L20.0198 4.99657L20.1874 5.98242ZM13.4891 8.64844L12.9336 7.81696L12.9336 7.81697L13.4891 8.64844ZM7.12976 16.3975L6.20588 16.0148L6.20588 16.0148L7.12976 16.3975ZM6.14734 26.373L5.16655 26.5681L5.16655 26.5681L6.14734 26.373ZM9.29773 33.3994L8.49932 34.0015L8.6381 34.1856L8.84344 34.2903L9.29773 33.3994ZM9.54871 33.5156L9.17435 34.4429L9.17449 34.443L9.54871 33.5156ZM10.9979 33.7725L11.0182 34.7723L11.0182 34.7723L10.9979 33.7725ZM11.9803 33.6211L12.2634 34.5802L12.6854 34.4557L12.8787 34.0604L11.9803 33.6211ZM12.5175 32.5605L13.4023 33.0265L13.4023 33.0265L12.5175 32.5605ZM18.3309 24.0723L17.5746 23.4181L17.5746 23.4181L18.3309 24.0723ZM28.5116 15.3564L29.0394 16.2058L29.0395 16.2058L28.5116 15.3564ZM30.3739 15.8027L31.2276 15.2819L31.2275 15.2817L30.3739 15.8027ZM29.9305 17.6816L29.4027 16.8323L29.4027 16.8323L29.9305 17.6816ZM20.37 25.8682L19.6136 25.214L19.6136 25.214L20.37 25.8682ZM14.9081 33.8428L15.7929 34.3087L15.7929 34.3087L14.9081 33.8428ZM14.1473 35.3721L13.2414 34.9487L13.1664 35.1092L13.1511 35.2858L14.1473 35.3721ZM14.2382 36.6602L13.2624 36.879L13.2624 36.879L14.2382 36.6602ZM14.8514 38.1045L14.0236 38.6654L14.0236 38.6655L14.8514 38.1045ZM14.9432 38.2324L14.1409 38.8292L14.2745 39.0089L14.4719 39.1144L14.9432 38.2324ZM19.7128 39.9395L19.5177 40.9202L19.5177 40.9202L19.7128 39.9395ZM29.6893 38.9561L30.072 39.8799L30.072 39.8799L29.6893 38.9561ZM37.4384 32.5977L38.2698 33.1532L38.2698 33.1532L37.4384 32.5977ZM40.1034 25.8984L39.1176 25.7308L39.1175 25.7308L40.1034 25.8984ZM43.2557 23.0049L43.2558 22.0049H43.2557V23.0049ZM45.9803 25.9043L46.9724 26.0299L46.9724 26.0298L45.9803 25.9043ZM42.2733 35.8281L43.1048 36.3837L43.1048 36.3837L42.2733 35.8281ZM31.9149 44.3291L32.2976 45.253L32.2976 45.253L31.9149 44.3291ZM18.579 45.6426L18.3839 46.6234L18.3839 46.6234L18.579 45.6426ZM6.76062 39.3262L6.05352 40.0333L6.05353 40.0333L6.76062 39.3262ZM0.443237 27.5078L-0.537548 27.7029L-0.537547 27.7029L0.443237 27.5078ZM1.75671 14.1719L0.832836 13.7892L0.832832 13.7892L1.75671 14.1719ZM10.2577 3.81348L9.70212 2.982L9.7021 2.98202L10.2577 3.81348ZM18.704 29.4961L19.4368 30.1765L19.4368 30.1765L18.704 29.4961ZM26.9354 30.3242L26.0877 30.8546L26.0877 30.8547L26.9354 30.3242ZM27.0741 30.5479L27.9259 30.0241L27.9258 30.0238L27.0741 30.5479ZM26.9403 32.1797L27.6731 32.8601L27.6731 32.8601L26.9403 32.1797ZM18.7089 31.3516L17.8608 31.8815L17.8611 31.8819L18.7089 31.3516ZM18.5702 31.1279L17.7183 31.6516L17.7185 31.652L18.5702 31.1279ZM23.6102 23.7793L24.2648 24.5353L24.2648 24.5353L23.6102 23.7793ZM31.5897 24.8525L32.4445 24.3335L32.4443 24.3332L31.5897 24.8525ZM31.7118 25.0557L30.8526 25.5674L30.8529 25.5678L31.7118 25.0557ZM31.4696 26.6299L32.1242 27.3858L32.1244 27.3857L31.4696 26.6299ZM23.4891 25.5566L22.6345 26.0759L22.6345 26.0759L23.4891 25.5566ZM23.368 25.3545L24.2272 24.8428L24.2269 24.8423L23.368 25.3545ZM13.1083 17.2344L13.8208 17.936L13.8208 17.936L13.1083 17.2344ZM14.7118 16.9883L15.2117 16.1222L15.2114 16.122L14.7118 16.9883ZM15.8153 25.2617L16.5332 25.9579L16.5333 25.9578L15.8153 25.2617ZM15.6317 25.4492L14.9192 24.7476L14.9191 24.7477L15.6317 25.4492ZM14.0272 25.6953L13.5273 26.5614L13.5274 26.5614L14.0272 25.6953ZM12.9247 17.4219L13.6427 18.1179L13.6429 18.1177L12.9247 17.4219ZM29.7596 19.1738L29.1186 18.4063L29.1186 18.4064L29.7596 19.1738ZM37.2821 20.3945L36.4386 20.9316L36.4386 20.9317L37.2821 20.3945ZM37.4012 20.584L38.249 20.0537L38.2489 20.0535L37.4012 20.584ZM37.1844 22.1152L37.8255 22.8827L37.8255 22.8827L37.1844 22.1152ZM29.662 20.8945L30.5055 20.3574L30.5053 20.3572L29.662 20.8945ZM29.5419 20.7051L28.694 21.2354L28.6946 21.2363L29.5419 20.7051ZM20.579 11.4395L20.127 10.5474L20.1267 10.5476L20.579 11.4395ZM22.162 11.7178L22.9116 11.0559L22.9114 11.0556L22.162 11.7178ZM20.6278 19.7832L20.1689 18.8947L20.1687 18.8948L20.6278 19.7832ZM20.3993 19.8994L19.9475 19.0073L19.9472 19.0075L20.3993 19.8994ZM18.8153 19.6211L18.0657 20.2829L18.0657 20.283L18.8153 19.6211ZM20.3495 11.5566L19.8907 10.6681L19.8905 10.6682L20.3495 11.5566ZM32.4081 13.043L33.2695 13.5508L33.2703 13.5495L32.4081 13.043ZM38.9872 10.54L39.3002 9.59029L39.2993 9.59L38.9872 10.54ZM39.3339 10.6543L39.0208 11.604L39.0217 11.6043L39.3339 10.6543ZM40.451 13.6465L41.3125 14.1543L41.3133 14.1531L40.451 13.6465ZM40.2645 13.9629L39.4031 13.4551L39.4024 13.4563L40.2645 13.9629ZM33.6864 16.4648L33.9985 15.5148L33.9962 15.514L33.6864 16.4648ZM33.3387 16.3516L33.0265 17.3016L33.0289 17.3024L33.3387 16.3516ZM32.2216 13.3594L31.3601 12.8515L31.3593 12.853L32.2216 13.3594ZM29.9979 7.65723L30.0582 6.65905L30.0582 6.65904L29.9979 7.65723ZM31.1591 8.7041L30.1791 8.90341L30.1791 8.90355L31.1591 8.7041ZM31.2059 8.94141L30.2245 9.13325L30.2245 9.13328L31.2059 8.94141ZM26.1815 14.8008L26.1212 15.799L26.1213 15.799L26.1815 14.8008ZM25.0204 13.7539L24.0405 13.9534L24.0405 13.9535L25.0204 13.7539ZM24.9735 13.5156L25.955 13.3239L25.9549 13.3238L24.9735 13.5156ZM20.1815 0.106445L20.3072 1.09852C21.218 0.983167 22.0819 1.73838 22.0819 2.83105L23.0819 2.83105L24.0819 2.83105C24.0819 0.711981 22.3313 -1.17381 20.0559 -0.88563L20.1815 0.106445ZM23.0819 2.83105L22.0819 2.83098C22.0818 3.85074 21.2262 4.79146 20.0198 4.99657L20.1874 5.98242L20.355 6.96827C22.3148 6.63508 24.0817 5.0229 24.0819 2.83113L23.0819 2.83105ZM20.1874 5.98242L20.0198 4.99657C17.4967 5.42558 15.0804 6.38255 12.9336 7.81696L13.4891 8.64844L14.0447 9.47991C15.9566 8.20243 18.1084 7.35027 20.355 6.96827L20.1874 5.98242ZM13.4891 8.64844L12.9336 7.81697C9.92967 9.82409 7.58841 12.6771 6.20588 16.0148L7.12976 16.3975L8.05364 16.7801C9.2848 13.8079 11.3697 11.2672 14.0447 9.47991L13.4891 8.64844ZM7.12976 16.3975L6.20588 16.0148C4.82342 19.3524 4.46177 23.0249 5.16655 26.5681L6.14734 26.373L7.12812 26.178C6.5005 23.0227 6.82256 19.7523 8.05364 16.7801L7.12976 16.3975ZM6.14734 26.373L5.16655 26.5681C5.70532 29.2767 6.85022 31.8148 8.49932 34.0015L9.29773 33.3994L10.0961 32.7973C8.62701 30.8492 7.60771 28.589 7.12812 26.178L6.14734 26.373ZM9.29773 33.3994L8.84344 34.2903C8.93804 34.3385 9.05016 34.3928 9.17435 34.4429L9.54871 33.5156L9.92306 32.5883C9.87384 32.5685 9.81896 32.5427 9.75202 32.5086L9.29773 33.3994ZM9.54871 33.5156L9.17449 34.443C9.7506 34.6754 10.3861 34.7851 11.0182 34.7723L10.9979 33.7725L10.9776 32.7727C10.598 32.7804 10.2326 32.7133 9.92292 32.5883L9.54871 33.5156ZM10.9979 33.7725L11.0182 34.7723C11.4462 34.7636 11.8667 34.6973 12.2634 34.5802L11.9803 33.6211L11.6973 32.662C11.4708 32.7288 11.2269 32.7676 10.9776 32.7727L10.9979 33.7725ZM11.9803 33.6211L12.8787 34.0604C13.0368 33.737 13.2102 33.3911 13.4023 33.0265L12.5175 32.5605L11.6327 32.0946C11.429 32.4813 11.2464 32.8456 11.082 33.1818L11.9803 33.6211ZM12.5175 32.5605L13.4023 33.0265C14.5658 30.817 16.4006 27.8328 19.0873 24.7264L18.3309 24.0723L17.5746 23.4181C14.7697 26.6612 12.8527 29.7778 11.6326 32.0946L12.5175 32.5605ZM18.3309 24.0723L19.0873 24.7264C21.6056 21.8147 24.8734 18.7948 29.0394 16.2058L28.5116 15.3564L27.9838 14.5071C23.6228 17.2173 20.205 20.3768 17.5746 23.4181L18.3309 24.0723ZM28.5116 15.3564L29.0395 16.2058C29.2012 16.1052 29.416 16.1528 29.5203 16.3237L30.3739 15.8027L31.2275 15.2817C30.548 14.1685 29.0949 13.8165 27.9837 14.5071L28.5116 15.3564ZM30.3739 15.8027L29.5203 16.3236C29.6277 16.4997 29.5702 16.7282 29.4027 16.8323L29.9305 17.6816L30.4584 18.531C31.5639 17.844 31.9037 16.3901 31.2276 15.2819L30.3739 15.8027ZM29.9305 17.6816L29.4027 16.8323C25.3052 19.3787 22.0912 22.3495 19.6136 25.214L20.37 25.8682L21.1263 26.5223C23.4919 23.7873 26.556 20.9562 30.4584 18.531L29.9305 17.6816ZM20.37 25.8682L19.6136 25.214C16.9698 28.2709 15.1658 31.2072 14.0233 33.3768L14.9081 33.8428L15.7929 34.3087C16.8791 32.246 18.6009 29.4423 21.1264 26.5223L20.37 25.8682ZM14.9081 33.8428L14.0233 33.3768C13.7158 33.9606 13.4563 34.4887 13.2414 34.9487L14.1473 35.3721L15.0533 35.7954C15.2555 35.3628 15.5009 34.8631 15.7929 34.3087L14.9081 33.8428ZM14.1473 35.3721L13.1511 35.2858C13.106 35.8065 13.1435 36.349 13.2624 36.879L14.2382 36.6602L15.2139 36.4413C15.1385 36.1048 15.1168 35.7681 15.1436 35.4584L14.1473 35.3721ZM14.2382 36.6602L13.2624 36.879C13.4062 37.5199 13.6652 38.1365 14.0236 38.6654L14.8514 38.1045L15.6793 37.5436C15.4713 37.2366 15.3068 36.8553 15.2139 36.4413L14.2382 36.6602ZM14.8514 38.1045L14.0236 38.6655C14.0661 38.7282 14.108 38.7851 14.1409 38.8292L14.9432 38.2324L15.7456 37.6356C15.7165 37.5965 15.6961 37.5684 15.6793 37.5435L14.8514 38.1045ZM14.9432 38.2324L14.4719 39.1144C16.0473 39.9563 17.7462 40.5678 19.5177 40.9202L19.7128 39.9395L19.9079 38.9587C18.3308 38.6449 16.8179 38.1004 15.4146 37.3505L14.9432 38.2324ZM19.7128 39.9395L19.5177 40.9202C23.0612 41.6251 26.7344 41.2624 30.072 39.8799L29.6893 38.9561L29.3067 38.0322C26.3342 39.2634 23.0631 39.5863 19.9079 38.9587L19.7128 39.9395ZM29.6893 38.9561L30.072 39.8799C33.4094 38.4975 36.2627 36.1571 38.2698 33.1532L37.4384 32.5977L36.6069 32.0421C34.8197 34.7167 32.2789 36.801 29.3066 38.0322L29.6893 38.9561ZM37.4384 32.5977L38.2698 33.1532C39.7045 31.0061 40.6603 28.5888 41.0892 26.0661L40.1034 25.8984L39.1175 25.7308C38.7355 27.9778 37.8842 30.1304 36.6069 32.0421L37.4384 32.5977ZM40.1034 25.8984L41.0892 26.0661C41.2943 24.8604 42.2354 24.0049 43.2557 24.0049V23.0049V22.0049C41.0645 22.0049 39.451 23.7704 39.1176 25.7308L40.1034 25.8984ZM43.2557 23.0049L43.2557 24.0049C44.3486 24.0049 45.1034 24.8684 44.9883 25.7788L45.9803 25.9043L46.9724 26.0298C47.2602 23.7543 45.3744 22.0049 43.2558 22.0049L43.2557 23.0049ZM45.9803 25.9043L44.9883 25.7786C44.5597 29.1628 43.3509 32.4154 41.4418 35.2726L42.2733 35.8281L43.1048 36.3837C45.1868 33.2677 46.505 29.7205 46.9724 26.0299L45.9803 25.9043ZM42.2733 35.8281L41.4419 35.2725C39.0155 38.9037 35.567 41.7339 31.5322 43.4052L31.9149 44.3291L32.2976 45.253C36.6978 43.4303 40.4587 40.3438 43.1048 36.3837L42.2733 35.8281ZM31.9149 44.3291L31.5322 43.4052C27.4974 45.0765 23.0574 45.5137 18.7741 44.6618L18.579 45.6426L18.3839 46.6234C23.0552 47.5525 27.8973 47.0756 32.2976 45.253L31.9149 44.3291ZM18.579 45.6426L18.7741 44.6618C14.4907 43.8098 10.5558 41.707 7.46771 38.619L6.76062 39.3262L6.05353 40.0333C9.42142 43.401 13.7127 45.6942 18.3839 46.6234L18.579 45.6426ZM6.76062 39.3262L7.46772 38.6191C4.37954 35.5309 2.27606 31.596 1.42402 27.3127L0.443237 27.5078L-0.537547 27.7029C0.391676 32.3743 2.68568 36.6655 6.05352 40.0333L6.76062 39.3262ZM0.443237 27.5078L1.42402 27.3127C0.572008 23.0294 1.00934 18.5894 2.6806 14.5546L1.75671 14.1719L0.832832 13.7892C-0.989792 18.1895 -1.46674 23.0316 -0.537548 27.7029L0.443237 27.5078ZM1.75671 14.1719L2.68059 14.5546C4.35182 10.5199 7.18216 7.07128 10.8133 4.64493L10.2577 3.81348L9.7021 2.98202C5.74215 5.6281 2.65546 9.38903 0.832836 13.7892L1.75671 14.1719ZM10.2577 3.81348L10.8133 4.64495C13.6704 2.73588 16.923 1.52713 20.3072 1.09852L20.1815 0.106445L20.0559 -0.88563C16.3653 -0.418214 12.8181 0.899977 9.70212 2.982L10.2577 3.81348ZM18.704 29.4961L19.4368 30.1765C21.4222 28.0384 24.5285 28.3625 26.0877 30.8546L26.9354 30.3242L27.7832 29.7938C25.5461 26.2182 20.8781 25.685 17.9712 28.8157L18.704 29.4961ZM26.9354 30.3242L26.0877 30.8547C26.1362 30.9322 26.1812 31.005 26.2224 31.0719L27.0741 30.5479L27.9258 30.0238C27.8829 29.9542 27.8351 29.8768 27.7831 29.7937L26.9354 30.3242ZM27.0741 30.5479L26.2223 31.0716C26.2697 31.1488 26.2916 31.2374 26.288 31.3128C26.285 31.3778 26.2641 31.4383 26.2075 31.4993L26.9403 32.1797L27.6731 32.8601C28.4885 31.982 28.4074 30.8071 27.9259 30.0241L27.0741 30.5479ZM26.9403 32.1797L26.2075 31.4993C24.222 33.6376 21.1158 33.3135 19.5566 30.8212L18.7089 31.3516L17.8611 31.8819C20.0982 35.4579 24.7662 35.9909 27.6731 32.8601L26.9403 32.1797ZM18.7089 31.3516L19.5569 30.8216C19.5081 30.7435 19.4628 30.6704 19.4219 30.6039L18.5702 31.1279L17.7185 31.652C17.7616 31.722 17.8093 31.7991 17.8608 31.8815L18.7089 31.3516ZM18.5702 31.1279L19.4221 30.6043C19.3747 30.5271 19.3528 30.4384 19.3563 30.3629C19.3594 30.2978 19.3803 30.2374 19.4368 30.1765L18.704 29.4961L17.9712 28.8156C17.1558 29.6937 17.2371 30.8688 17.7183 31.6516L18.5702 31.1279ZM23.6102 23.7793L24.2648 24.5353C26.3622 22.7191 29.387 23.1537 30.7352 25.3719L31.5897 24.8525L32.4443 24.3332C30.4007 20.9708 25.9107 20.4645 22.9556 23.0233L23.6102 23.7793ZM31.5897 24.8525L30.735 25.3716C30.7772 25.4412 30.8168 25.5071 30.8526 25.5674L31.7118 25.0557L32.5709 24.544C32.5331 24.4804 32.4905 24.4094 32.4445 24.3335L31.5897 24.8525ZM31.7118 25.0557L30.8529 25.5678C30.8898 25.6297 30.8997 25.6928 30.8936 25.7404C30.8887 25.7792 30.8723 25.8242 30.8148 25.8741L31.4696 26.6299L32.1244 27.3857C33.0276 26.6032 33.0812 25.3998 32.5707 24.5435L31.7118 25.0557ZM31.4696 26.6299L30.815 25.8739C28.7174 27.6903 25.6917 27.2557 24.3437 25.0373L23.4891 25.5566L22.6345 26.0759C24.678 29.4389 29.1691 29.9448 32.1242 27.3858L31.4696 26.6299ZM23.4891 25.5566L24.3438 25.0374C24.3025 24.9695 24.2652 24.9066 24.2272 24.8428L23.368 25.3545L22.5089 25.8662C22.5444 25.9259 22.5875 25.9985 22.6345 26.0759L23.4891 25.5566ZM23.368 25.3545L24.2269 24.8423C24.1899 24.7803 24.18 24.717 24.1861 24.669C24.191 24.63 24.2075 24.585 24.2648 24.5353L23.6102 23.7793L22.9557 23.0233C22.0516 23.8061 21.9986 25.0107 22.5092 25.8667L23.368 25.3545ZM13.1083 17.2344L13.8208 17.936C13.8835 17.8723 13.9606 17.833 14.0281 17.8202C14.0848 17.8094 14.1425 17.8144 14.2122 17.8545L14.7118 16.9883L15.2114 16.122C14.1678 15.5201 13.0424 15.876 12.3957 16.5328L13.1083 17.2344ZM14.7118 16.9883L14.2119 17.8544C16.7359 19.3112 17.1448 22.4536 15.0973 24.5657L15.8153 25.2617L16.5333 25.9578C19.4598 22.939 18.8976 18.2497 15.2117 16.1222L14.7118 16.9883ZM15.8153 25.2617L15.0974 24.5656C15.0346 24.6304 14.9754 24.6905 14.9192 24.7476L15.6317 25.4492L16.3442 26.1509C16.4003 26.0939 16.4644 26.0288 16.5332 25.9579L15.8153 25.2617ZM15.6317 25.4492L14.9191 24.7477C14.8566 24.8111 14.7794 24.8506 14.7115 24.8635C14.6544 24.8743 14.5965 24.8693 14.527 24.8292L14.0272 25.6953L13.5274 26.5614C14.5711 27.1637 15.6975 26.8078 16.3443 26.1508L15.6317 25.4492ZM14.0272 25.6953L14.5271 24.8292C12.0034 23.3725 11.5949 20.2302 13.6427 18.1179L12.9247 17.4219L12.2067 16.7258C9.28045 19.7443 9.84108 24.4337 13.5273 26.5614L14.0272 25.6953ZM12.9247 17.4219L13.6429 18.1177C13.7054 18.0532 13.7642 17.9935 13.8208 17.936L13.1083 17.2344L12.3957 16.5328C12.3401 16.5892 12.2756 16.6547 12.2065 16.726L12.9247 17.4219ZM29.7596 19.1738L30.4007 19.9413C32.2759 18.3751 35.1084 18.8426 36.4386 20.9316L37.2821 20.3945L38.1256 19.8574C36.1687 16.7842 31.9502 16.0413 29.1186 18.4063L29.7596 19.1738ZM37.2821 20.3945L36.4386 20.9317C36.4792 20.9954 36.5161 21.0547 36.5536 21.1145L37.4012 20.584L38.2489 20.0535C38.2141 19.9978 38.1715 19.9295 38.1256 19.8574L37.2821 20.3945ZM37.4012 20.584L36.5535 21.1143C36.5873 21.1685 36.5981 21.2272 36.5945 21.2653C36.5929 21.2813 36.5892 21.2922 36.5849 21.3005C36.581 21.308 36.571 21.3247 36.5434 21.3478L37.1844 22.1152L37.8255 22.8827C38.8008 22.068 38.7356 20.8315 38.249 20.0537L37.4012 20.584ZM37.1844 22.1152L36.5434 21.3477C34.6683 22.9138 31.8358 22.4463 30.5055 20.3574L29.662 20.8945L28.8185 21.4317C30.7754 24.5045 34.9939 25.2478 37.8255 22.8827L37.1844 22.1152ZM29.662 20.8945L30.5053 20.3572C30.4616 20.2885 30.423 20.228 30.3891 20.1739L29.5419 20.7051L28.6946 21.2363C28.7331 21.2977 28.7757 21.3645 28.8186 21.4319L29.662 20.8945ZM29.5419 20.7051L30.3897 20.1748C30.3561 20.1212 30.3454 20.0627 30.3491 20.0247C30.3506 20.0085 30.3544 19.9976 30.3589 19.989C30.3628 19.9813 30.373 19.9645 30.4007 19.9413L29.7596 19.1738L29.1186 18.4064C28.1443 19.2201 28.2067 20.4561 28.694 21.2354L29.5419 20.7051ZM20.579 11.4395L21.0309 12.3315C21.1063 12.2933 21.1879 12.2812 21.2532 12.2903C21.3076 12.2979 21.3597 12.32 21.4126 12.3799L22.162 11.7178L22.9114 11.0556C22.1183 10.1582 20.9459 10.1325 20.127 10.5474L20.579 11.4395ZM22.162 11.7178L21.4123 12.3796C23.3139 14.5334 22.7148 17.5799 20.1689 18.8947L20.6278 19.7832L21.0867 20.6717C24.7682 18.7704 25.6912 14.2042 22.9116 11.0559L22.162 11.7178ZM20.6278 19.7832L20.1687 18.8948C20.0915 18.9347 20.0213 18.9699 19.9475 19.0073L20.3993 19.8994L20.8511 20.7915C20.9167 20.7583 20.9999 20.7165 21.0869 20.6716L20.6278 19.7832ZM20.3993 19.8994L19.9472 19.0075C19.8718 19.0457 19.7898 19.0579 19.7243 19.0488C19.6697 19.0412 19.6177 19.019 19.5649 18.9592L18.8153 19.6211L18.0657 20.283C18.8591 21.1815 20.0327 21.2063 20.8514 20.7914L20.3993 19.8994ZM18.8153 19.6211L19.565 18.9593C17.6636 16.8056 18.2626 13.7602 20.8084 12.4451L20.3495 11.5566L19.8905 10.6682C16.2096 12.5696 15.2861 17.1346 18.0657 20.2829L18.8153 19.6211ZM20.3495 11.5566L20.8083 12.4452C20.8871 12.4045 20.9615 12.3667 21.0312 12.3313L20.579 11.4395L20.1267 10.5476C20.0566 10.5831 19.9766 10.6237 19.8907 10.6681L20.3495 11.5566ZM32.4081 13.043L33.2703 13.5495C34.3524 11.7077 36.6682 10.8308 38.6751 11.4901L38.9872 10.54L39.2993 9.59C36.3904 8.63435 33.1004 9.89044 31.5459 12.5364L32.4081 13.043ZM38.9872 10.54L38.6742 11.4898L39.0208 11.604L39.3339 10.6543L39.6469 9.70455L39.3002 9.59029L38.9872 10.54ZM39.3339 10.6543L39.0217 11.6043C39.6443 11.8089 39.9328 12.5545 39.5888 13.1399L40.451 13.6465L41.3133 14.1531C42.2953 12.4816 41.4953 10.3119 39.646 9.70427L39.3339 10.6543ZM40.451 13.6465L39.5896 13.1387L39.4031 13.4551L40.2645 13.9629L41.126 14.4707L41.3125 14.1543L40.451 13.6465ZM40.2645 13.9629L39.4024 13.4563C38.3203 15.2977 36.0053 16.174 33.9985 15.5148L33.6864 16.4648L33.3743 17.4149C36.2828 18.3703 39.572 17.1153 41.1267 14.4695L40.2645 13.9629ZM33.6864 16.4648L33.9962 15.514L33.6486 15.4008L33.3387 16.3516L33.0289 17.3024L33.3766 17.4156L33.6864 16.4648ZM33.3387 16.3516L33.651 15.4016C33.0287 15.197 32.74 14.4513 33.0839 13.8658L32.2216 13.3594L31.3593 12.853C30.3778 14.5242 31.1775 16.6938 33.0265 17.3016L33.3387 16.3516ZM32.2216 13.3594L33.083 13.8672L33.2695 13.5508L32.4081 13.043L31.5466 12.5351L31.3601 12.8515L32.2216 13.3594ZM29.9979 7.65723L29.9376 8.65541C30.0034 8.65938 30.0451 8.68161 30.0811 8.71645C30.1249 8.7589 30.1634 8.82632 30.1791 8.90341L31.1591 8.7041L32.139 8.50479C31.9609 7.62918 31.2345 6.73013 30.0582 6.65905L29.9979 7.65723ZM31.1591 8.7041L30.1791 8.90355C30.1929 8.97102 30.2074 9.04553 30.2245 9.13325L31.2059 8.94141L32.1874 8.74956C32.1711 8.66621 32.1547 8.58177 32.139 8.50466L31.1591 8.7041ZM31.2059 8.94141L30.2245 9.13328C30.7429 11.7848 28.8734 13.9615 26.2418 13.8026L26.1815 14.8008L26.1213 15.799C30.1161 16.0401 32.9456 12.6277 32.1874 8.74953L31.2059 8.94141ZM26.1815 14.8008L26.2418 13.8026C26.1762 13.7986 26.1345 13.7765 26.0985 13.7415C26.0546 13.699 26.016 13.6315 26.0003 13.5543L25.0204 13.7539L24.0405 13.9535C24.2187 14.8285 24.9449 15.7279 26.1212 15.799L26.1815 14.8008ZM25.0204 13.7539L26.0003 13.5544C25.9866 13.4872 25.9726 13.4144 25.955 13.3239L24.9735 13.5156L23.9921 13.7074C24.0079 13.7883 24.0247 13.8758 24.0405 13.9534L25.0204 13.7539ZM24.9735 13.5156L25.9549 13.3238C25.4367 10.6725 27.3059 8.4965 29.9377 8.65541L29.9979 7.65723L30.0582 6.65904C26.0635 6.41783 23.234 9.82924 23.9921 13.7075L24.9735 13.5156Z" fill="#04704E" mask="url(#path-1-inside-1_152_65)"/>
</svg>
