<svg width="32" height="32" viewBox="0 0 32 32" fill="none" xmlns="http://www.w3.org/2000/svg">
<path d="M29.9844 16C31.0976 16 32.0131 16.906 31.8732 18.0103C31.5627 20.4624 30.6868 22.8188 29.3035 24.8891C27.5454 27.5203 25.0466 29.5711 22.1229 30.7821C19.1993 31.9931 15.9823 32.3099 12.8786 31.6926C9.77486 31.0752 6.92393 29.5513 4.68629 27.3137C2.44865 25.0761 0.924799 22.2251 0.307435 19.1214C-0.309928 16.0177 0.00692538 12.8007 1.21793 9.87706C2.42893 6.95345 4.47969 4.45459 7.11088 2.69649C9.18116 1.31317 11.5376 0.437335 13.9897 0.126783C15.094 -0.0130828 16 0.902415 16 2.0156C16 3.12878 15.0913 4.01392 13.9939 4.20051C12.3407 4.4816 10.7573 5.10833 9.35049 6.04831C7.38223 7.36345 5.84816 9.23273 4.94227 11.4197C4.03638 13.6068 3.79936 16.0133 4.26118 18.335C4.72299 20.6567 5.86291 22.7894 7.53678 24.4632C9.21065 26.1371 11.3433 27.277 13.665 27.7388C15.9867 28.2006 18.3932 27.9636 20.5803 27.0577C22.7673 26.1518 24.6365 24.6178 25.9517 22.6495C26.8917 21.2427 27.5184 19.6593 27.7995 18.0061C27.9861 16.9087 28.8712 16 29.9844 16Z" fill="#FFF3C3"/>
<path fill-rule="evenodd" clip-rule="evenodd" d="M20.7945 5.36093C18.4977 5.22214 16.869 7.15891 17.3114 9.42212C17.323 9.48157 17.334 9.5367 17.3442 9.58689C17.4182 9.95057 17.7077 10.2859 18.1487 10.3126C20.4454 10.4513 22.0742 8.51459 21.6317 6.25135C21.6201 6.19193 21.6091 6.13679 21.5989 6.08659C21.5249 5.7229 21.2354 5.38757 20.7945 5.36093ZM27.2658 7.43852C28.1226 7.72001 28.4998 8.73028 28.0402 9.51254L27.9113 9.73195C26.9975 11.2874 25.0547 12.0264 23.3509 11.4666L23.1104 11.3876C22.2537 11.1061 21.8764 10.0959 22.336 9.3136L22.4649 9.09421C23.3787 7.53875 25.3216 6.79979 27.0253 7.35953L27.2658 7.43852ZM20.6291 13.3442C22.2605 11.9816 24.7043 12.4012 25.8436 14.1904C25.8736 14.2375 25.9013 14.2814 25.9264 14.3215C26.1227 14.6352 26.1288 15.0881 25.7758 15.3831C24.1444 16.7456 21.7006 16.3261 20.5613 14.5369C20.5313 14.4898 20.5036 14.4459 20.4785 14.4058C20.2821 14.092 20.276 13.6391 20.6291 13.3442ZM16.3663 16.5368C18.1175 15.0203 20.7223 15.3465 21.8978 17.281C21.9285 17.3314 21.9567 17.3784 21.9823 17.4213C22.1853 17.7616 22.1569 18.2162 21.8143 18.5129C20.063 20.0294 17.4582 19.7032 16.2828 17.7687C16.2521 17.7183 16.2238 17.6713 16.1983 17.6284C15.9953 17.2881 16.0237 16.8334 16.3663 16.5368ZM15.3628 8.17597C15.0601 7.83303 14.6059 7.80984 14.265 7.98259C14.2165 8.00716 14.1634 8.0343 14.1063 8.06378C11.9479 9.17853 11.4203 11.8164 13.0428 13.6542C13.3456 13.9971 13.7998 14.0203 14.1407 13.8475C14.1891 13.823 14.2422 13.7959 14.2993 13.7663C16.4577 12.6516 16.9853 10.0137 15.3628 8.17597ZM10.1984 11.8292C12.3508 13.0716 12.6868 15.7857 10.9628 17.5641C10.9171 17.6112 10.8745 17.6548 10.8356 17.6943C10.564 17.9702 10.122 18.0948 9.7235 17.8648C7.57115 16.6224 7.23514 13.9083 8.9591 12.13C9.00478 12.0828 9.04739 12.0393 9.08634 11.9997C9.35797 11.7238 9.79993 11.5993 10.1984 11.8292ZM18.6716 21.0738C17.3559 18.9705 14.6614 18.6737 12.9657 20.4999C12.6517 20.838 12.6696 21.3007 12.8728 21.6311C12.9019 21.6785 12.9341 21.7303 12.9689 21.7861C14.2847 23.8893 16.9792 24.1862 18.6749 22.36C18.9888 22.0219 18.971 21.5592 18.7678 21.2288C18.7387 21.1814 18.7065 21.1295 18.6716 21.0738ZM20.7478 12.3101C21.189 12.0359 21.3265 11.4528 21.0548 11.0076C20.7832 10.5624 20.2053 10.4238 19.7641 10.698C16.8087 12.5348 14.4915 14.6765 12.7069 16.7398C10.8035 18.9407 9.5033 21.0554 8.67715 22.6242C8.26381 23.4091 7.96829 24.059 7.77462 24.5169C7.66996 24.7643 7.57545 25.0122 7.48544 25.2617C7.30814 25.753 7.57234 26.2937 8.06195 26.4646C8.55156 26.6356 9.08011 26.3715 9.25835 25.8805C9.33396 25.6722 9.41334 25.4652 9.50024 25.2598C9.67511 24.8464 9.94796 24.2453 10.3339 23.5124C11.1065 22.0455 12.3287 20.0563 14.1204 17.9846C15.799 16.0438 17.9751 14.0333 20.7478 12.3101Z" fill="#FFF3C3"/>
<path d="M3.69231 22.0308C3.69231 22.5366 3.87791 23.0331 4.22981 23.4688C4.58171 23.9045 5.08706 24.2633 5.69328 24.5081C6.29951 24.7528 6.98447 24.8745 7.67692 24.8604C8.36937 24.8464 9.04403 24.6971 9.6307 24.4282L8.61351 23.2452C8.31632 23.3815 7.97456 23.4571 7.62378 23.4642C7.27301 23.4713 6.92602 23.4097 6.61893 23.2857C6.31183 23.1617 6.05584 22.9799 5.87757 22.7592C5.69931 22.5385 5.60529 22.287 5.60529 22.0308H3.69231Z" fill="#FFF3C3"/>
<path d="M11.7206 29.3148C11.2169 29.3616 10.7039 29.2071 10.2347 28.8673C9.76557 28.5276 9.35748 28.0149 9.0529 27.3827C8.74831 26.7505 8.55835 26.0219 8.50279 25.2726C8.44722 24.5233 8.52807 23.7807 8.73693 23.1221L10.0371 24.1269C9.93289 24.4554 9.89256 24.8258 9.92028 25.1996C9.948 25.5734 10.0428 25.9368 10.1947 26.2522C10.3466 26.5675 10.5502 26.8232 10.7842 26.9927C11.0182 27.1622 11.2742 27.2393 11.5254 27.2159L11.7206 29.3148Z" fill="#FFF3C3"/>
<path d="M16.3077 11.0154C16.1231 12.3077 15.3846 13.6 13.7846 13.9692C13.0651 14.1353 12.1231 12.7385 12.0615 11.2C12.1846 9.72308 13.1077 8.06154 14.7077 7.87692C15.8081 7.74996 16.4308 9.90769 16.3077 11.0154Z" fill="#FFB326"/>
<path d="M15.6625 19.2122C17.0063 19.2951 18.3978 19.9559 18.9151 21.5939C19.1477 22.3305 17.7936 23.4318 16.2181 23.6266C14.6899 23.6236 12.9031 22.8015 12.5755 21.1479C12.3502 20.0106 14.5137 19.1778 15.6625 19.2122Z" fill="#FF3737"/>
<path d="M23.0146 12.3165C24.2938 12.3955 25.6183 13.0245 26.1107 14.5836C26.3321 15.2848 25.0432 16.3331 23.5435 16.5185C22.0889 16.5156 20.388 15.7331 20.0762 14.1591C19.8618 13.0765 21.9211 12.2838 23.0146 12.3165Z" fill="#FF3737"/>
</svg>
